<?xml version="1.0" encoding="UTF-8"?>
<svg id="Layer_2" data-name="Layer 2" xmlns="http://www.w3.org/2000/svg" viewBox="0 0 16.55 6.85">
  <defs>
    <style>
      .cls-1 {
        fill: #fff;
      }
    </style>
  </defs>
  <g id="Layer_1-2" data-name="Layer 1">
    <g>
      <path class="cls-1" d="M1.27,2.57c-.56,0-.89-.51-.89-1.14S.7.29,1.27.29c.61,0,.88.58.88,1.14,0,.61-.3,1.14-.89,1.14M1.3,0C.53,0,0,.6,0,1.45s.49,1.42,1.25,1.42c.7,0,1.29-.51,1.29-1.44C2.54.63,2.09,0,1.3,0"/>
      <path class="cls-1" d="M1.27,2.57c-.56,0-.89-.51-.89-1.14S.7.29,1.27.29c.61,0,.88.58.88,1.14,0,.61-.3,1.14-.89,1.14M1.3,0C.53,0,0,.6,0,1.45s.49,1.42,1.25,1.42c.7,0,1.29-.51,1.29-1.44C2.54.63,2.09,0,1.3,0"/>
      <path class="cls-1" d="M4.68,1.69c0,.61-.27.88-.68.88-.37,0-.65-.26-.65-.88V.05h-.36v1.64c0,.86.43,1.18,1,1.18.6,0,1.05-.35,1.05-1.2V.05h-.36v1.65Z"/>
      <path class="cls-1" d="M4.68,1.69c0,.61-.27.88-.68.88-.37,0-.65-.26-.65-.88V.05h-.36v1.64c0,.86.43,1.18,1,1.18.6,0,1.05-.35,1.05-1.2V.05h-.36v1.65Z"/>
      <polygon class="cls-1" points="5.35 .35 6.19 .35 6.19 2.82 6.55 2.82 6.55 .35 7.4 .35 7.4 .05 5.35 .05 5.35 .35"/>
      <polygon class="cls-1" points="5.35 .35 6.19 .35 6.19 2.82 6.55 2.82 6.55 .35 7.4 .35 7.4 .05 5.35 .05 5.35 .35"/>
      <path class="cls-1" d="M10.07,2.57c-.56,0-.89-.51-.89-1.14s.32-1.14.89-1.14c.61,0,.88.58.88,1.14,0,.6-.3,1.14-.89,1.14M11.33,1.43c0-.8-.45-1.43-1.24-1.43s-1.3.6-1.3,1.45.49,1.42,1.25,1.42c.7,0,1.29-.51,1.29-1.44"/>
      <path class="cls-1" d="M10.07,2.57c-.56,0-.89-.51-.89-1.14s.32-1.14.89-1.14c.61,0,.88.58.88,1.14,0,.6-.3,1.14-.89,1.14M11.33,1.43c0-.8-.45-1.43-1.24-1.43s-1.3.6-1.3,1.45.49,1.42,1.25,1.42c.7,0,1.29-.51,1.29-1.44"/>
      <polygon class="cls-1" points="12.16 1.56 13.21 1.56 13.21 1.27 12.16 1.27 12.16 .34 13.29 .34 13.29 .05 11.8 .05 11.8 2.82 12.16 2.82 12.16 1.56"/>
      <polygon class="cls-1" points="12.16 1.56 13.21 1.56 13.21 1.27 12.16 1.27 12.16 .34 13.29 .34 13.29 .05 11.8 .05 11.8 2.82 12.16 2.82 12.16 1.56"/>
      <polygon class="cls-1" points="0 4.36 .85 4.36 .85 6.83 1.21 6.83 1.21 4.36 2.06 4.36 2.06 4.05 0 4.05 0 4.36"/>
      <polygon class="cls-1" points="0 4.36 .85 4.36 .85 6.83 1.21 6.83 1.21 4.36 2.06 4.36 2.06 4.05 0 4.05 0 4.36"/>
      <polygon class="cls-1" points="4.23 5.22 2.89 5.22 2.89 4.05 2.53 4.05 2.53 6.83 2.89 6.83 2.89 5.53 4.23 5.53 4.23 6.83 4.59 6.83 4.59 4.05 4.23 4.05 4.23 5.22"/>
      <polygon class="cls-1" points="4.23 5.22 2.89 5.22 2.89 4.05 2.53 4.05 2.53 6.83 2.89 6.83 2.89 5.53 4.23 5.53 4.23 6.83 4.59 6.83 4.59 4.05 4.23 4.05 4.23 5.22"/>
      <polygon class="cls-1" points="5.57 5.53 6.65 5.53 6.65 5.23 5.57 5.23 5.57 4.35 6.71 4.35 6.71 4.05 5.21 4.05 5.21 6.83 6.77 6.83 6.77 6.53 5.57 6.53 5.57 5.53"/>
      <polygon class="cls-1" points="5.57 5.53 6.65 5.53 6.65 5.23 5.57 5.23 5.57 4.35 6.71 4.35 6.71 4.05 5.21 4.05 5.21 6.83 6.77 6.83 6.77 6.53 5.57 6.53 5.57 5.53"/>
      <path class="cls-1" d="M8.83,6.57c-.13,0-.23,0-.3-.02v-1.06h.3c.39,0,.72.16.72.54,0,.4-.35.54-.72.54M8.53,4.33c.06-.02.15-.02.32-.02.36,0,.6.13.6.45,0,.27-.22.47-.6.47h-.33v-.9ZM9.35,5.34h0c.29-.12.47-.35.47-.62,0-.22-.09-.39-.23-.49-.17-.14-.4-.2-.76-.2-.24,0-.49.02-.65.06v2.73c.12.02.31.03.56.03.45,0,.77-.08.95-.26.14-.14.24-.32.24-.56,0-.42-.31-.63-.57-.69"/>
      <path class="cls-1" d="M8.83,6.57c-.13,0-.23,0-.3-.02v-1.06h.3c.39,0,.72.16.72.54,0,.4-.35.54-.72.54M8.53,4.33c.06-.02.15-.02.32-.02.36,0,.6.13.6.45,0,.27-.22.47-.6.47h-.33v-.9ZM9.35,5.34h0c.29-.12.47-.35.47-.62,0-.22-.09-.39-.23-.49-.17-.14-.4-.2-.76-.2-.24,0-.49.02-.65.06v2.73c.12.02.31.03.56.03.45,0,.77-.08.95-.26.14-.14.24-.32.24-.56,0-.42-.31-.63-.57-.69"/>
      <path class="cls-1" d="M15.69,5.4l.84-1.35h-.41l-.38.65c-.1.18-.17.3-.25.47h0c-.08-.15-.16-.29-.26-.47l-.37-.65h-.41l.81,1.37-.85,1.4h.41l.33-.61c.14-.24.22-.39.3-.55h0c.09.16.17.32.32.55l.35.61h.42l-.86-1.42Z"/>
      <path class="cls-1" d="M15.69,5.4l.84-1.35h-.41l-.38.65c-.1.18-.17.3-.25.47h0c-.08-.15-.16-.29-.26-.47l-.37-.65h-.41l.81,1.37-.85,1.4h.41l.33-.61c.14-.24.22-.39.3-.55h0c.09.16.17.32.32.55l.35.61h.42l-.86-1.42Z"/>
      <path class="cls-1" d="M10.88,5.44l1.43-.84,1.47.85-1.5.83-1.4-.84ZM12.31,4.24l-2.04,1.2,2.01,1.2,2.14-1.18-2.11-1.21Z"/>
      <path class="cls-1" d="M10.88,5.44l1.43-.84,1.47.85-1.5.83-1.4-.84ZM12.31,4.24l-2.04,1.2,2.01,1.2,2.14-1.18-2.11-1.21Z"/>
    </g>
  </g>
</svg>